<?xml version="1.0" encoding="UTF-8"?>
<!DOCTYPE svg PUBLIC "-//W3C//DTD SVG 1.1//EN" "http://www.w3.org/Graphics/SVG/1.1/DTD/svg11.dtd">
<svg width="500pt" height="500pt" viewBox="0 0 500 500" version="1.1" xmlns="http://www.w3.org/2000/svg">
<path fill="#cb2027" stroke="#cb2027" stroke-width="0.09375" opacity="1.00" d=" M 0.0 0.0 L 500.0 0.0 L 500.0 500.0 L 0.0 500.0 L 0.0 0.0 Z"/>
<path fill="#ffffff" stroke="#ffffff" stroke-width="0.09375" opacity="1.00" d=" M 216.3 104.5 C 225.7 102.4 235.3 100.7 245.0 101.0 C 252.7 101.1 260.4 100.7 268.0 101.4 C 297.1 104.6 325.2 116.6 347.6 135.4 C 372.1 155.9 389.9 184.4 397.3 215.5 C 399.5 225.2 401.2 235.1 401.0 245.0 C 400.9 251.7 401.2 258.4 400.7 265.1 C 398.2 293.3 387.3 320.6 369.9 342.9 C 351.7 366.2 326.6 384.1 298.5 393.3 C 269.7 402.9 237.9 403.4 208.8 394.9 C 214.3 385.0 220.1 375.2 223.2 364.3 C 227.1 350.2 230.5 336.0 234.2 321.8 C 242.7 333.7 257.5 340.3 272.0 339.9 C 288.7 339.9 305.2 333.7 317.9 322.9 C 335.9 307.6 346.0 284.9 350.0 262.0 C 352.7 245.2 353.5 227.5 347.7 211.3 C 340.3 189.1 323.1 170.8 302.1 160.9 C 282.3 151.2 259.5 149.4 238.0 152.3 C 216.6 155.3 195.7 164.0 179.8 178.8 C 162.5 194.7 151.0 217.4 149.7 241.0 C 149.2 254.8 151.3 268.9 157.8 281.2 C 162.8 290.5 170.8 298.5 180.7 302.3 C 182.8 303.1 185.6 302.8 186.8 300.7 C 188.5 297.7 188.8 294.1 189.8 290.7 C 190.5 287.9 191.7 285.0 191.3 282.0 C 189.9 278.9 187.2 276.5 185.5 273.6 C 179.5 264.3 178.1 252.7 179.2 241.9 C 180.6 224.2 188.9 207.0 202.1 195.1 C 214.6 183.8 231.3 177.5 248.0 176.7 C 262.9 176.0 278.5 178.5 291.3 186.7 C 302.3 193.7 310.2 205.1 313.4 217.7 C 316.5 229.9 315.5 242.7 313.9 255.0 C 311.4 271.0 306.2 287.1 295.8 299.8 C 290.0 306.7 282.0 312.2 273.0 313.7 C 264.6 315.2 255.3 312.9 249.4 306.6 C 244.3 301.4 242.3 293.6 243.7 286.4 C 247.2 270.7 253.5 255.7 256.5 239.8 C 258.0 231.7 257.6 222.5 252.1 215.9 C 248.1 210.9 241.4 208.8 235.1 209.4 C 227.3 210.0 220.5 214.8 216.1 221.0 C 209.3 230.4 207.3 242.5 208.3 253.8 C 208.7 260.2 210.8 266.2 212.7 272.2 C 206.8 298.6 200.3 324.8 194.2 351.1 C 191.0 363.2 190.6 375.8 190.8 388.2 C 162.6 376.0 138.5 354.7 122.6 328.4 C 108.4 304.9 100.7 277.5 101.0 250.0 C 100.9 217.4 112.1 184.9 132.1 159.1 C 152.8 132.0 183.0 112.4 216.3 104.5 Z"/>
</svg>