<?xml version="1.0" encoding="UTF-8"?>
<!-- Generator: Adobe Illustrator 16.0.4, SVG Export Plug-In . SVG Version: 6.00 Build 0)  -->
<!DOCTYPE svg PUBLIC "-//W3C//DTD SVG 1.1//EN" "http://www.w3.org/Graphics/SVG/1.1/DTD/svg11.dtd">
<svg version="1.1" id="Layer_1" xmlns="http://www.w3.org/2000/svg" xmlns:xlink="http://www.w3.org/1999/xlink" x="0px" y="0px" width="200px" height="200px" viewBox="0 0 200 200" enable-background="new 0 0 200 200" xml:space="preserve">
<g>
	<g>
		<linearGradient id="SVGID_1_" gradientUnits="userSpaceOnUse" x1="156.332" y1="68.7861" x2="156.332" y2="31.2666">
			<stop offset="0" style="stop-color:#796055"/>
			<stop offset="0.2793" style="stop-color:#69534A"/>
			<stop offset="0.8647" style="stop-color:#45352F"/>
			<stop offset="1" style="stop-color:#3D2D28"/>
		</linearGradient>
		<path fill="url(#SVGID_1_)" d="M175.092,66.786c0,1.1-0.9,2-2,2h-33.52c-1.1,0-2-0.9-2-2v-33.52c0-1.1,0.9-2,2-2h33.52    c1.1,0,2,0.9,2,2V66.786z"/>
	</g>
	<g>
		<g>
			<linearGradient id="SVGID_2_" gradientUnits="userSpaceOnUse" x1="100.0527" y1="1.8159" x2="100.0527" y2="197.3867">
				<stop offset="0" style="stop-color:#DBD8CF"/>
				<stop offset="1" style="stop-color:#D4C4A1"/>
			</linearGradient>
			<path fill="url(#SVGID_2_)" d="M33.355,199.324c-17.96,0-32.573-14.614-32.573-32.574V33.355     c0-17.96,14.613-32.573,32.573-32.573h133.402c17.96,0,32.567,14.613,32.567,32.573V166.75c0,17.96-14.607,32.574-32.567,32.574     H33.355z"/>
			<g>
				<path fill="#A2826D" d="M166.757,1.563c17.526,0,31.785,14.259,31.785,31.792V166.75c0,17.533-14.259,31.792-31.785,31.792      H33.355c-17.526,0-31.792-14.259-31.792-31.792V33.355c0-17.532,14.265-31.792,31.792-31.792H166.757 M166.757,0H33.355      C15.01,0,0,15.01,0,33.355V166.75c0,18.357,15.01,33.355,33.355,33.355h133.402c18.345,0,33.349-14.998,33.349-33.355V33.355      C200.105,15.01,185.102,0,166.757,0L166.757,0z"/>
			</g>
		</g>
		<linearGradient id="SVGID_3_" gradientUnits="userSpaceOnUse" x1="100.0532" y1="75.0396" x2="100.0532" y2="0">
			<stop offset="0" style="stop-color:#796055"/>
			<stop offset="0.2793" style="stop-color:#69534A"/>
			<stop offset="0.8647" style="stop-color:#45352F"/>
			<stop offset="1" style="stop-color:#3D2D28"/>
		</linearGradient>
		<path fill="url(#SVGID_3_)" d="M200.105,75.04V33.355C200.105,15.395,184.717,0,166.757,0H33.355C15.395,0,0,15.395,0,33.355    V75.04H200.105z"/>
		<g>
			<g>
				<linearGradient id="SVGID_4_" gradientUnits="userSpaceOnUse" x1="100.0522" y1="1.042" x2="100.0522" y2="198.1524">
					<stop offset="0" style="stop-color:#CABEB2"/>
					<stop offset="1" style="stop-color:#AD9A88"/>
				</linearGradient>
				<path fill="url(#SVGID_4_)" d="M166.757,0H33.355C15.01,0,0,15.01,0,33.355V166.75c0,18.357,15.01,33.355,33.355,33.355h133.402      c18.345,0,33.349-14.998,33.349-33.355V33.355C200.105,15.01,185.102,0,166.757,0z M193.853,166.75      c0,14.95-12.152,27.103-27.096,27.103H33.355c-14.943,0-27.102-12.152-27.102-27.103V33.355      c0-14.949,12.158-27.102,27.102-27.102h133.402c14.943,0,27.096,12.152,27.096,27.102V166.75z"/>
			</g>
		</g>
		<g opacity="0.35">
			<g>
				<linearGradient id="SVGID_5_" gradientUnits="userSpaceOnUse" x1="100.0532" y1="194.6338" x2="100.0532" y2="88.2307">
					<stop offset="0" style="stop-color:#FFFFFF"/>
					<stop offset="1" style="stop-color:#010101"/>
				</linearGradient>
				<path fill="url(#SVGID_5_)" d="M166.757,6.253H33.355c-14.943,0-27.102,12.152-27.102,27.102V166.75      c0,14.95,12.158,27.103,27.102,27.103h133.402c14.943,0,27.096-12.152,27.096-27.103V33.355      C193.853,18.406,181.7,6.253,166.757,6.253z M187.599,166.75c0,11.493-9.35,20.849-20.842,20.849H33.355      c-11.493,0-20.848-9.355-20.848-20.849V33.355c0-11.493,9.355-20.848,20.848-20.848h133.402      c11.492,0,20.842,9.355,20.842,20.848V166.75z"/>
			</g>
		</g>
		<g opacity="0.5">
			<linearGradient id="SVGID_6_" gradientUnits="userSpaceOnUse" x1="100.0527" y1="6.4272" x2="100.0527" y2="39.2829">
				<stop offset="0" style="stop-color:#FFFFFF"/>
				<stop offset="1" style="stop-color:#010101"/>
			</linearGradient>
			<path fill="url(#SVGID_6_)" d="M166.757,6.253H33.355c-14.943,0-27.102,12.152-27.102,27.102v6.253     c0-14.949,12.158-27.102,27.102-27.102h133.402c14.943,0,27.096,12.152,27.096,27.102v-6.253     C193.853,18.406,181.7,6.253,166.757,6.253z"/>
		</g>
		<linearGradient id="SVGID_7_" gradientUnits="userSpaceOnUse" x1="100.0527" y1="71.9292" x2="100.0527" y2="75.0089">
			<stop offset="0" style="stop-color:#CABEB2"/>
			<stop offset="1" style="stop-color:#AD9A88"/>
		</linearGradient>
		<rect x="6.253" y="71.913" fill="url(#SVGID_7_)" width="187.599" height="3.126"/>
		<linearGradient id="SVGID_8_" gradientUnits="userSpaceOnUse" x1="100.0527" y1="75.0557" x2="100.0527" y2="78.1353">
			<stop offset="0" style="stop-color:#CABEB2"/>
			<stop offset="1" style="stop-color:#AD9A88"/>
		</linearGradient>
		<rect x="6.253" y="75.04" fill="url(#SVGID_8_)" width="187.599" height="3.126"/>
	</g>
	<g>
		<linearGradient id="SVGID_9_" gradientUnits="userSpaceOnUse" x1="156.332" y1="62.5332" x2="156.332" y2="25.0132">
			<stop offset="0" style="stop-color:#796055"/>
			<stop offset="0.2793" style="stop-color:#69534A"/>
			<stop offset="0.8647" style="stop-color:#45352F"/>
			<stop offset="1" style="stop-color:#3D2D28"/>
		</linearGradient>
		<path fill="url(#SVGID_9_)" d="M175.092,50.026c0,6.876-5.63,12.507-12.506,12.507h-12.507c-6.876,0-12.507-5.631-12.507-12.507    V37.52c0-6.876,5.631-12.506,12.507-12.506h12.507c6.876,0,12.506,5.63,12.506,12.506V50.026z"/>
	</g>
	<path fill="#333333" d="M162.586,62.533h-12.507c-6.876,0-12.507-5.631-12.507-12.507v3.126c0,6.876,5.631,12.507,12.507,12.507   h12.507c6.876,0,12.506-5.63,12.506-12.507v-3.126C175.092,56.902,169.462,62.533,162.586,62.533z"/>
	<circle fill="#B4B4B4" cx="100.053" cy="106.306" r="50.026"/>
	<g>
		<defs>
			<filter id="Adobe_OpacityMaskFilter" filterUnits="userSpaceOnUse" x="31.267" y="0" width="6.253" height="75.04">
				<feFlood style="flood-color:white;flood-opacity:1" result="back"/>
				<feBlend in="SourceGraphic" in2="back" mode="normal"/>
			</filter>
		</defs>
		<mask maskUnits="userSpaceOnUse" x="31.267" y="0" width="6.253" height="75.04" id="SVGID_10_">
			<g filter="url(#Adobe_OpacityMaskFilter)">
				<defs>
					<filter id="Adobe_OpacityMaskFilter_1_" filterUnits="userSpaceOnUse" x="31.267" y="0" width="6.253" height="75.04">
						<feFlood style="flood-color:white;flood-opacity:1" result="back"/>
						<feBlend in="SourceGraphic" in2="back" mode="normal"/>
					</filter>
				</defs>
				<mask maskUnits="userSpaceOnUse" x="31.267" y="0" width="6.253" height="75.04" id="SVGID_10_">
					<g filter="url(#Adobe_OpacityMaskFilter_1_)">
					</g>
				</mask>
				<linearGradient id="SVGID_11_" gradientUnits="userSpaceOnUse" x1="34.3931" y1="0" x2="34.3931" y2="75.0396">
					<stop offset="0" style="stop-color:#000000"/>
					<stop offset="0.5" style="stop-color:#FFFFFF"/>
					<stop offset="1" style="stop-color:#FFFFFF"/>
				</linearGradient>
				<rect x="31.267" mask="url(#SVGID_10_)" fill="url(#SVGID_11_)" width="6.253" height="75.04"/>
			</g>
		</mask>
		<linearGradient id="SVGID_12_" gradientUnits="userSpaceOnUse" x1="34.3931" y1="0" x2="34.3931" y2="75.0396">
			<stop offset="0" style="stop-color:#F37F5F"/>
			<stop offset="0.5" style="stop-color:#EB2227"/>
			<stop offset="1" style="stop-color:#CF232B"/>
		</linearGradient>
		<rect x="31.267" fill="url(#SVGID_12_)" width="6.253" height="75.04"/>
		<defs>
			<filter id="Adobe_OpacityMaskFilter_2_" filterUnits="userSpaceOnUse" x="37.52" y="0" width="6.253" height="75.04">
				<feFlood style="flood-color:white;flood-opacity:1" result="back"/>
				<feBlend in="SourceGraphic" in2="back" mode="normal"/>
			</filter>
		</defs>
		<mask maskUnits="userSpaceOnUse" x="37.52" y="0" width="6.253" height="75.04" id="SVGID_13_">
			<g filter="url(#Adobe_OpacityMaskFilter_2_)">
				<defs>
					<filter id="Adobe_OpacityMaskFilter_3_" filterUnits="userSpaceOnUse" x="37.52" y="0" width="6.253" height="75.04">
						<feFlood style="flood-color:white;flood-opacity:1" result="back"/>
						<feBlend in="SourceGraphic" in2="back" mode="normal"/>
					</filter>
				</defs>
				<mask maskUnits="userSpaceOnUse" x="37.52" y="0" width="6.253" height="75.04" id="SVGID_13_">
					<g filter="url(#Adobe_OpacityMaskFilter_3_)">
					</g>
				</mask>
				<linearGradient id="SVGID_14_" gradientUnits="userSpaceOnUse" x1="40.646" y1="0" x2="40.646" y2="75.0396">
					<stop offset="0" style="stop-color:#000000"/>
					<stop offset="0.5" style="stop-color:#FFFFFF"/>
					<stop offset="1" style="stop-color:#FFFFFF"/>
				</linearGradient>
				<rect x="37.52" mask="url(#SVGID_13_)" fill="url(#SVGID_14_)" width="6.253" height="75.04"/>
			</g>
		</mask>
		<linearGradient id="SVGID_15_" gradientUnits="userSpaceOnUse" x1="40.646" y1="0" x2="40.646" y2="75.0396">
			<stop offset="0" style="stop-color:#FEE7A3"/>
			<stop offset="0.5" style="stop-color:#FFCB0A"/>
			<stop offset="1" style="stop-color:#F8AC1C"/>
		</linearGradient>
		<rect x="37.52" fill="url(#SVGID_15_)" width="6.253" height="75.04"/>
		<defs>
			<filter id="Adobe_OpacityMaskFilter_4_" filterUnits="userSpaceOnUse" x="43.773" y="0" width="6.253" height="75.04">
				<feFlood style="flood-color:white;flood-opacity:1" result="back"/>
				<feBlend in="SourceGraphic" in2="back" mode="normal"/>
			</filter>
		</defs>
		<mask maskUnits="userSpaceOnUse" x="43.773" y="0" width="6.253" height="75.04" id="SVGID_16_">
			<g filter="url(#Adobe_OpacityMaskFilter_4_)">
				<defs>
					<filter id="Adobe_OpacityMaskFilter_5_" filterUnits="userSpaceOnUse" x="43.773" y="0" width="6.253" height="75.04">
						<feFlood style="flood-color:white;flood-opacity:1" result="back"/>
						<feBlend in="SourceGraphic" in2="back" mode="normal"/>
					</filter>
				</defs>
				<mask maskUnits="userSpaceOnUse" x="43.773" y="0" width="6.253" height="75.04" id="SVGID_16_">
					<g filter="url(#Adobe_OpacityMaskFilter_5_)">
					</g>
				</mask>
				<linearGradient id="SVGID_17_" gradientUnits="userSpaceOnUse" x1="46.8999" y1="0" x2="46.8999" y2="75.0396">
					<stop offset="0" style="stop-color:#000000"/>
					<stop offset="0.5" style="stop-color:#FFFFFF"/>
					<stop offset="1" style="stop-color:#FFFFFF"/>
				</linearGradient>
				<rect x="43.773" mask="url(#SVGID_16_)" fill="url(#SVGID_17_)" width="6.253" height="75.04"/>
			</g>
		</mask>
		<linearGradient id="SVGID_18_" gradientUnits="userSpaceOnUse" x1="46.8999" y1="0" x2="46.8999" y2="75.0396">
			<stop offset="0" style="stop-color:#D2E5A6"/>
			<stop offset="0.5" style="stop-color:#ACD479"/>
			<stop offset="1" style="stop-color:#77B843"/>
		</linearGradient>
		<rect x="43.773" fill="url(#SVGID_18_)" width="6.253" height="75.04"/>
		<defs>
			<filter id="Adobe_OpacityMaskFilter_6_" filterUnits="userSpaceOnUse" x="50.026" y="0" width="6.253" height="75.04">
				<feFlood style="flood-color:white;flood-opacity:1" result="back"/>
				<feBlend in="SourceGraphic" in2="back" mode="normal"/>
			</filter>
		</defs>
		<mask maskUnits="userSpaceOnUse" x="50.026" y="0" width="6.253" height="75.04" id="SVGID_19_">
			<g filter="url(#Adobe_OpacityMaskFilter_6_)">
				<defs>
					<filter id="Adobe_OpacityMaskFilter_7_" filterUnits="userSpaceOnUse" x="50.026" y="0" width="6.253" height="75.04">
						<feFlood style="flood-color:white;flood-opacity:1" result="back"/>
						<feBlend in="SourceGraphic" in2="back" mode="normal"/>
					</filter>
				</defs>
				<mask maskUnits="userSpaceOnUse" x="50.026" y="0" width="6.253" height="75.04" id="SVGID_19_">
					<g filter="url(#Adobe_OpacityMaskFilter_7_)">
					</g>
				</mask>
				<linearGradient id="SVGID_20_" gradientUnits="userSpaceOnUse" x1="53.1528" y1="0" x2="53.1528" y2="75.0396">
					<stop offset="0" style="stop-color:#000000"/>
					<stop offset="0.5" style="stop-color:#FFFFFF"/>
					<stop offset="1" style="stop-color:#FFFFFF"/>
				</linearGradient>
				<rect x="50.026" mask="url(#SVGID_19_)" fill="url(#SVGID_20_)" width="6.253" height="75.04"/>
			</g>
		</mask>
		<linearGradient id="SVGID_21_" gradientUnits="userSpaceOnUse" x1="53.1528" y1="0" x2="53.1528" y2="75.0396">
			<stop offset="0" style="stop-color:#4B9BD5"/>
			<stop offset="0.5" style="stop-color:#3E7DC0"/>
			<stop offset="1" style="stop-color:#356DB5"/>
		</linearGradient>
		<rect x="50.026" fill="url(#SVGID_21_)" width="6.253" height="75.04"/>
	</g>
	<g>
		<g>
			<linearGradient id="SVGID_22_" gradientUnits="userSpaceOnUse" x1="43.7729" y1="56.2798" x2="43.7729" y2="81.293">
				<stop offset="0" style="stop-color:#634E45"/>
				<stop offset="1" style="stop-color:#3D2D28"/>
			</linearGradient>
			<path fill="url(#SVGID_22_)" d="M62.533,79.293c0,1.1-0.9,2-2,2h-33.52c-1.1,0-2-0.9-2-2V58.28c0-1.1,0.9-2,2-2h33.52     c1.1,0,2,0.9,2,2V79.293z"/>
		</g>
		<g>
			<linearGradient id="SVGID_23_" gradientUnits="userSpaceOnUse" x1="43.7729" y1="62.5332" x2="43.7729" y2="87.5459">
				<stop offset="0" style="stop-color:#634E45"/>
				<stop offset="1" style="stop-color:#3D2D28"/>
			</linearGradient>
			<path fill="url(#SVGID_23_)" d="M62.533,85.546c0,1.1-0.9,2-2,2h-33.52c-1.1,0-2-0.9-2-2V64.533c0-1.1,0.9-2,2-2h33.52     c1.1,0,2,0.9,2,2V85.546z"/>
		</g>
		<g>
			<path fill="#FFFFFF" d="M33.538,70.826v8.428h-1.099v-8.428H33.538z"/>
			<path fill="#FFFFFF" d="M35.438,79.253v-8.428h1.203l2.687,4.263c0.611,0.989,1.112,1.875,1.502,2.736l0.037-0.012     c-0.104-1.124-0.128-2.149-0.128-3.462v-3.524h1.026v8.428h-1.105l-2.675-4.275c-0.586-0.94-1.148-1.905-1.557-2.815     l-0.043,0.012c0.067,1.063,0.08,2.07,0.08,3.475v3.603H35.438z"/>
			<path fill="#FFFFFF" d="M43.529,77.922c0.489,0.317,1.185,0.55,1.942,0.55c1.111,0,1.759-0.586,1.759-1.435     c0-0.776-0.452-1.24-1.588-1.661c-1.374-0.501-2.223-1.228-2.223-2.4c0-1.313,1.087-2.284,2.724-2.284     c0.849,0,1.49,0.196,1.85,0.409l-0.299,0.886c-0.269-0.159-0.83-0.397-1.587-0.397c-1.148,0-1.588,0.69-1.588,1.264     c0,0.781,0.513,1.172,1.673,1.624c1.429,0.55,2.137,1.234,2.137,2.474c0,1.3-0.953,2.437-2.937,2.437     c-0.812,0-1.704-0.25-2.15-0.55L43.529,77.922z"/>
			<path fill="#FFFFFF" d="M51.431,71.754h-2.565v-0.928h6.241v0.928H52.53v7.5h-1.099V71.754z"/>
		</g>
	</g>
	<g>
		<circle fill="#E8E1D7" cx="100.053" cy="100.053" r="50.026"/>
		<radialGradient id="SVGID_24_" cx="100.0527" cy="100.0527" r="43.7734" gradientUnits="userSpaceOnUse">
			<stop offset="0.0485" style="stop-color:#57767B"/>
			<stop offset="0.7911" style="stop-color:#0E1314"/>
			<stop offset="0.9333" style="stop-color:#000000"/>
		</radialGradient>
		<circle fill="url(#SVGID_24_)" cx="100.053" cy="100.053" r="43.773"/>
		<path opacity="0.5" fill="#B4B4B4" d="M100.053,75.04c-13.813,0-25.013,11.2-25.013,25.013s11.2,25.014,25.013,25.014    s25.014-11.2,25.014-25.014S113.866,75.04,100.053,75.04z M100.053,118.812c-10.357,0-18.76-8.402-18.76-18.76    c0-10.357,8.403-18.76,18.76-18.76c10.357,0,18.76,8.403,18.76,18.76C118.812,110.41,110.41,118.812,100.053,118.812z"/>
	</g>
	<g>
		<g>
			<radialGradient id="SVGID_25_" cx="100.0527" cy="100.0527" r="21.8867" gradientUnits="userSpaceOnUse">
				<stop offset="0" style="stop-color:#816A81"/>
				<stop offset="1" style="stop-color:#010101"/>
			</radialGradient>
			<circle fill="url(#SVGID_25_)" cx="100.053" cy="100.053" r="21.887"/>
			<linearGradient id="SVGID_26_" gradientUnits="userSpaceOnUse" x1="95.1284" y1="78.7227" x2="104.9773" y2="121.3828">
				<stop offset="0" style="stop-color:#B2C6D0"/>
				<stop offset="0.5393" style="stop-color:#7995A4"/>
				<stop offset="1" style="stop-color:#456776"/>
			</linearGradient>
			<circle fill="url(#SVGID_26_)" cx="100.053" cy="100.053" r="21.887"/>
		</g>
		<linearGradient id="SVGID_27_" gradientUnits="userSpaceOnUse" x1="80.5962" y1="64.0234" x2="89.2148" y2="78.9514">
			<stop offset="0" style="stop-color:#7995A4"/>
			<stop offset="1" style="stop-color:#442F4F"/>
		</linearGradient>
		<path opacity="0.6" fill="url(#SVGID_27_)" d="M77.293,84.884L65.91,77.293c2.351-3.511,5.233-6.632,8.519-9.264l8.543,10.675    C80.78,80.462,78.862,82.539,77.293,84.884z M100.053,72.694V59.016c-6.595,0-12.812,1.594-18.333,4.36l6.107,12.226    C91.516,73.757,95.656,72.694,100.053,72.694z"/>
		<linearGradient id="SVGID_28_" gradientUnits="userSpaceOnUse" x1="104.7119" y1="103.2266" x2="122.6948" y2="134.3739">
			<stop offset="0" style="stop-color:#112E1E"/>
			<stop offset="1" style="stop-color:#442F4F"/>
		</linearGradient>
		<path opacity="0.6" fill="url(#SVGID_28_)" d="M84.035,137.841c4.922,2.089,10.339,3.249,16.018,3.249    c22.668,0,41.037-18.369,41.037-41.037c0-1.618-0.116-3.212-0.306-4.775c-2.576-0.421-5.202-0.696-7.901-0.696    C107.711,94.581,86.997,113.476,84.035,137.841z"/>
	</g>
	<radialGradient id="SVGID_29_" cx="156.332" cy="43.7729" r="15.6335" gradientUnits="userSpaceOnUse">
		<stop offset="0" style="stop-color:#050505"/>
		<stop offset="1" style="stop-color:#010101"/>
	</radialGradient>
	<circle fill="url(#SVGID_29_)" cx="156.333" cy="43.773" r="15.633"/>
	<path fill="#333333" d="M162.134,41.526l5.838-2.253c-1.264-3.261-3.835-5.85-7.096-7.126l-2.278,5.832   C160.229,38.619,161.499,39.901,162.134,41.526z"/>
</g>
</svg>